<svg width="106" height="20" viewBox="0 0 106 20" fill="none" xmlns="http://www.w3.org/2000/svg">
<path d="M11.0594 19.9526V15.4163C10.7246 15.4795 10.3792 15.5125 10.026 15.5125C6.97357 15.5125 4.49914 13.0445 4.49914 9.99999C4.49914 6.95552 6.97357 4.48748 10.026 4.48748C13.0122 4.48748 15.4452 6.84965 15.5493 9.80278H15.556V20H20.0519V9.99999C20.0519 4.01089 15.5632 5.01891e-07 10.026 5.01891e-07C4.48878 5.01891e-07 0 4.47715 0 9.99999C0 15.5228 4.48878 20 10.026 20C10.3728 20 10.718 19.9856 11.0594 19.9526Z" fill="url(#paint0_linear_1661_312)"/>
<path d="M35.0782 15.236C36.1164 15.03 37.0702 14.5216 37.8187 13.7749L41.1234 17.0711C40.0147 18.1769 38.6657 19.0038 37.1881 19.4922C36.797 19.6215 36.397 19.7271 35.9899 19.8078C34.0451 20.1937 32.0292 19.9957 30.1972 19.2388C28.3652 18.4819 26.7993 17.2002 25.6976 15.5557C24.596 13.9112 24.008 11.9778 24.008 10C24.008 8.02219 24.596 6.08879 25.6976 4.4443C26.7993 2.79981 28.3652 1.51809 30.1972 0.761203C32.0292 0.00432935 34.0451 -0.193694 35.9899 0.192145C36.397 0.272897 36.797 0.378464 37.1881 0.50776C38.6657 0.996191 40.0147 1.8231 41.1234 2.92893L37.8187 6.22506C37.0702 5.47844 36.1164 4.97 35.0782 4.764C34.0399 4.55802 32.9637 4.66373 31.9857 5.0678C31.0076 5.47186 30.1717 6.15612 29.5836 7.03405C28.9954 7.91197 28.6815 8.94412 28.6815 10C28.6815 11.0559 28.9954 12.088 29.5836 12.966C30.1717 13.8439 31.0076 14.5281 31.9857 14.9322C32.9637 15.3363 34.0399 15.442 35.0782 15.236Z" fill="url(#paint1_linear_1661_312)"/>
<path fill-rule="evenodd" clip-rule="evenodd" d="M64.2236 9.99999C64.2236 15.5228 59.7348 20 54.1976 20C48.6604 20 44.1716 15.5228 44.1716 9.99999C44.1716 4.47715 48.6604 5.01891e-07 54.1976 5.01891e-07C59.7348 5.01891e-07 64.2236 4.47715 64.2236 9.99999ZM59.55 9.99999C59.55 7.05158 57.1536 4.66142 54.1976 4.66142C51.2415 4.66142 48.8451 7.05158 48.8451 9.99999C48.8451 12.9484 51.2415 15.3386 54.1976 15.3386C57.1536 15.3386 59.55 12.9484 59.55 9.99999Z" fill="url(#paint2_linear_1661_312)"/>
<path d="M85.2814 9.99999C85.2814 8.68678 85.5408 7.38642 86.0446 6.17316C86.1377 5.94903 86.2388 5.72868 86.3476 5.51251C86.8279 4.55853 87.459 3.68597 88.218 2.92893C89.149 2.00034 90.2542 1.26375 91.4706 0.761203C92.687 0.258654 93.9908 5.01891e-07 95.3074 5.01891e-07C96.624 5.01891e-07 97.9278 0.258654 99.1442 0.761203C100.361 1.26375 101.466 2.00034 102.397 2.92893C103.156 3.68597 103.787 4.55854 104.267 5.51251C104.376 5.72869 104.477 5.94903 104.57 6.17316C105.074 7.38642 105.333 8.68678 105.333 9.99999V20H100.669V9.99999H100.66C100.66 9.29892 100.521 8.60472 100.252 7.95701C99.9834 7.3093 99.5892 6.72078 99.0921 6.22506C98.5951 5.72932 98.0051 5.33608 97.3557 5.0678C96.7063 4.79951 96.0103 4.66142 95.3074 4.66142C94.6045 4.66142 93.9085 4.79951 93.2591 5.0678C92.6097 5.33608 92.0197 5.72932 91.5227 6.22506C91.0256 6.72078 90.6314 7.3093 90.3624 7.95701C90.0934 8.60472 89.9549 9.29892 89.9549 9.99999H89.9458V20H85.2814V9.99999Z" fill="url(#paint3_linear_1661_312)"/>
<path d="M67.9444 10.1425C67.9444 4.54093 72.4971 5.01891e-07 78.1132 5.01891e-07C80.3472 5.01891e-07 82.413 0.718553 84.0909 1.93658L81.5171 5.92422C80.5861 5.17583 79.4021 4.72783 78.1132 4.72782C75.115 4.72782 72.6845 7.15204 72.6845 10.1425L72.6882 10.1424V20H67.9444V10.1425Z" fill="url(#paint4_linear_1661_312)"/>
<defs>
<linearGradient id="paint0_linear_1661_312" x1="124.602" y1="-1.50403e-06" x2="111.812" y2="51.3611" gradientUnits="userSpaceOnUse">
<stop stop-color="#1400FF"/>
<stop offset="1" stop-color="#0076E3"/>
</linearGradient>
<linearGradient id="paint1_linear_1661_312" x1="124.602" y1="-1.50403e-06" x2="111.812" y2="51.3611" gradientUnits="userSpaceOnUse">
<stop stop-color="#1400FF"/>
<stop offset="1" stop-color="#0076E3"/>
</linearGradient>
<linearGradient id="paint2_linear_1661_312" x1="124.602" y1="-1.50403e-06" x2="111.812" y2="51.3611" gradientUnits="userSpaceOnUse">
<stop stop-color="#1400FF"/>
<stop offset="1" stop-color="#0076E3"/>
</linearGradient>
<linearGradient id="paint3_linear_1661_312" x1="124.602" y1="-1.50403e-06" x2="111.812" y2="51.3611" gradientUnits="userSpaceOnUse">
<stop stop-color="#1400FF"/>
<stop offset="1" stop-color="#0076E3"/>
</linearGradient>
<linearGradient id="paint4_linear_1661_312" x1="124.602" y1="-1.50403e-06" x2="111.812" y2="51.3611" gradientUnits="userSpaceOnUse">
<stop stop-color="#1400FF"/>
<stop offset="1" stop-color="#0076E3"/>
</linearGradient>
</defs>
</svg>
